<svg width="108" height="22" viewBox="0 0 108 22" fill="none" xmlns="http://www.w3.org/2000/svg">
<path d="M9.86984 14.5073C8.77129 14.7385 7.70165 15.0565 6.6031 15.23C5.90928 15.3456 5.21547 15.5191 4.55055 15.6347C4.55055 11.9054 4.63728 8.34962 4.92637 4.76488C5.04201 3.52179 5.18656 2.2787 5.24437 1.0356C3.53874 1.06451 1.5151 1.32469 0.647821 1.44033C0.561094 3.72415 0.329821 5.80561 0.329821 7.88707C0.329821 10.778 0.156366 13.64 0.156366 16.502C0.156366 17.9185 0.0696382 19.2195 0.185275 20.6071C0.821276 20.5782 1.45728 20.5204 2.12219 20.4625C2.84492 20.4047 3.53874 20.318 4.29037 20.2313C5.70692 20.0578 7.06565 19.7398 8.45329 19.5085C9.20493 19.3929 10.0433 19.3062 10.7949 19.1038C10.5637 16.82 10.1011 15.23 9.86984 14.5073ZM23.7024 7.39561C23.4711 6.21034 22.9508 5.28525 22.3437 4.21561C21.6788 2.97252 20.4068 1.90288 19.1059 1.41142C18.412 1.15124 17.6893 1.0356 17.0244 1.18015C15.5789 1.41142 13.2373 3.17488 12.5146 4.59143C11.4449 6.7307 11.1269 8.9278 11.1269 11.3273C11.1269 11.9633 11.1558 12.5704 11.2137 13.2064C11.3293 14.3916 11.7051 15.7504 12.1677 16.6176C12.3989 17.0513 12.7169 17.4849 13.006 17.8607C13.3529 18.2944 13.7866 18.6702 14.1624 19.046C14.8562 19.7398 16.0704 19.9133 17.0244 19.9422C18.0651 19.9711 19.2215 19.6531 20.0599 19.046C22.0257 17.7162 22.9508 15.7793 23.6157 13.8424C23.9337 12.8305 23.9915 11.7031 24.0493 10.6623C24.1071 9.5638 23.9048 8.49416 23.7024 7.39561ZM18.7589 14.2182C18.3831 14.7385 18.1808 15.1433 17.5448 15.2589C17.1111 15.3456 16.7642 15.3456 16.3595 14.7096C15.3188 12.8305 15.4633 10.1131 15.868 8.11834C15.9548 7.68471 16.1571 6.99089 16.3884 6.67289C16.7353 6.15252 17.1689 5.7767 17.6026 5.7767C17.9206 5.7767 18.2386 5.97907 18.5566 6.44161C18.7011 6.64398 19.0191 7.25107 19.1059 7.51125C19.3949 8.23398 19.5106 8.9278 19.5973 9.70835C19.6262 10.0263 19.6551 10.3443 19.6551 10.6623C19.6551 11.9343 19.366 13.2931 18.7589 14.2182ZM39.5205 13.7267C39.5494 12.9173 39.4337 12.1367 39.347 11.3273C39.2314 10.6045 39.029 9.82398 38.8266 9.10125C38.0461 9.10125 37.6414 9.18798 36.9475 9.2458C36.2537 9.33253 35.5599 9.47707 34.8661 9.59271C34.2301 9.67944 32.4088 10.0842 31.715 10.2576C31.8306 10.9803 32.0908 12.8016 32.5244 14.2471C33.5363 14.0736 34.1144 13.958 34.8661 13.8713C35.0395 14.6229 34.7504 15.6636 34.0855 15.9816C33.6519 16.184 33.2183 16.2707 32.7557 16.2707C32.2643 16.2996 31.9752 16.0684 31.5993 15.7793C31.2524 15.5191 30.9633 15.1433 30.7321 14.7964C30.443 14.3338 30.2406 13.9002 30.0961 13.3509C29.9804 12.9751 29.9226 12.5993 29.9226 12.2524C29.9226 11.5007 30.1539 10.8358 30.4141 10.0842C30.8188 8.9278 31.4259 7.85816 32.2064 6.96198C32.7268 6.38379 33.5652 5.71888 34.259 5.40088C34.3457 6.29707 34.4035 7.19325 34.3457 7.9738C35.1263 7.91598 36.9764 7.77143 38.6243 7.42452C38.6821 6.47052 38.6243 4.73597 38.5954 3.95543C38.5375 3.05924 38.393 1.98961 37.8148 1.26688C37.2366 0.573057 36.2826 0.515239 35.4443 0.544148C34.9528 0.544148 34.4035 0.630876 33.9121 0.80433C33.0448 1.12233 32.4377 1.3536 31.8595 1.70051C31.1657 2.10524 30.5008 2.5967 29.9804 3.17488C29.5179 3.66634 28.9686 4.12888 28.5928 4.73597C26.9161 7.10652 25.355 9.50598 25.355 12.5704C25.355 13.0907 25.4128 13.64 25.5573 14.1314C26.2801 16.6465 27.5232 19.1616 30.0961 20.2024C30.8477 20.5204 31.8306 20.7516 32.6979 20.7516C33.0159 20.7516 33.305 20.7227 33.5652 20.6649C34.6348 20.4625 35.531 20.2313 36.4561 19.6531C36.9475 19.3929 37.3234 18.9593 37.6992 18.6124C38.1328 18.1498 38.5665 17.6584 38.8266 17.0513C39.347 15.8949 39.4626 14.9987 39.5205 13.7267ZM53.4867 7.39561C53.2555 6.21034 52.7351 5.28525 52.128 4.21561C51.4631 2.97252 50.1911 1.90288 48.8902 1.41142C48.1964 1.15124 47.4736 1.0356 46.8087 1.18015C45.3633 1.41142 43.0216 3.17488 42.2989 4.59143C41.2292 6.7307 40.9112 8.9278 40.9112 11.3273C40.9112 11.9633 40.9402 12.5704 40.998 13.2064C41.1136 14.3916 41.4894 15.7504 41.952 16.6176C42.1833 17.0513 42.5013 17.4849 42.7903 17.8607C43.1373 18.2944 43.5709 18.6702 43.9467 19.046C44.6405 19.7398 45.8547 19.9133 46.8087 19.9422C47.8494 19.9711 49.0058 19.6531 49.8442 19.046C51.81 17.7162 52.7351 15.7793 53.4 13.8424C53.718 12.8305 53.7758 11.7031 53.8336 10.6623C53.8915 9.5638 53.6891 8.49416 53.4867 7.39561ZM48.5433 14.2182C48.1674 14.7385 47.9651 15.1433 47.3291 15.2589C46.8954 15.3456 46.5485 15.3456 46.1438 14.7096C45.1031 12.8305 45.2476 10.1131 45.6523 8.11834C45.7391 7.68471 45.9414 6.99089 46.1727 6.67289C46.5196 6.15252 46.9533 5.7767 47.3869 5.7767C47.7049 5.7767 48.0229 5.97907 48.3409 6.44161C48.4854 6.64398 48.8034 7.25107 48.8902 7.51125C49.1793 8.23398 49.2949 8.9278 49.3816 9.70835C49.4105 10.0263 49.4394 10.3443 49.4394 10.6623C49.4394 11.9343 49.1504 13.2931 48.5433 14.2182ZM62.3955 14.3049C62.3666 14.6229 62.3666 14.9698 62.4244 15.2878C62.4533 15.8371 62.5111 18.9593 62.6557 19.4507C63.5229 19.364 65.3442 19.1327 67.0499 18.5835C66.992 18.0631 66.8764 14.8542 66.8475 14.3627C66.8186 13.958 66.8186 13.4954 66.7897 13.0907C66.7897 11.5874 66.8475 10.1131 66.8764 8.63871C66.9053 6.93307 66.8475 5.22743 66.992 3.57961C66.992 3.26161 67.0499 1.32469 67.0788 0.48633C65.402 0.601967 63.6386 0.948876 62.6557 1.12233C62.5978 2.2787 62.5978 6.21034 62.5689 6.99089C62.5689 8.14725 62.54 8.84107 62.5111 9.82398C61.586 9.96853 61.0078 10.0842 60.0538 10.2287C60.1117 9.30362 60.1406 8.81216 60.1984 7.88707C60.2273 7.13543 60.1984 6.38379 60.2562 5.57434C60.2273 5.25634 60.4008 1.93179 60.4586 1.61379C58.8108 1.67161 56.7293 2.01851 55.9198 2.16306C55.8909 2.77015 55.862 6.4127 55.862 6.93307C55.8909 9.01453 55.6886 11.096 55.6597 13.1485C55.7175 14.8831 55.6307 15.9816 55.6597 17.8318C55.6597 18.7858 55.7175 19.8265 55.8331 20.2891C56.7293 20.2313 58.4638 20.0578 59.996 19.7109C59.9671 19.5664 59.9382 17.6584 59.9382 17.5138C59.8804 16.5598 59.9382 15.6636 59.9382 14.7096C60.8633 14.5651 61.4704 14.4494 62.3955 14.3049ZM80.6306 18.6991C80.6306 17.8607 80.2548 15.4902 79.8501 14.3627C78.7515 14.7674 77.3639 14.9698 76.1208 15.2589C75.745 15.3456 75.398 15.3745 74.9933 15.4902C74.762 15.548 74.3284 15.6058 74.0682 15.6347C74.0104 15.1433 74.0971 13.8713 74.126 13.3798C76.1497 13.1485 78.9828 12.4836 78.9828 12.4836C79.0117 12.2813 79.0117 11.9922 79.0117 11.6163C79.0117 10.2576 78.8961 8.11834 78.8961 8.11834L74.3284 8.98562C74.3573 8.52307 74.3862 5.7767 74.4151 5.40088C75.9473 5.05397 78.0288 4.96725 79.5899 4.8227C79.6477 3.2327 79.4742 1.12233 79.4164 0.283966C77.9421 0.283966 75.6871 0.630876 74.2128 0.919967C71.9868 1.32469 69.8764 1.87397 68.402 2.16306C68.4599 3.08815 68.5177 5.28525 68.7779 6.7307C69.2115 6.64398 69.5873 6.55725 69.9342 6.47052C69.9342 6.78852 69.9342 8.03162 69.9342 8.40743C69.9342 10.46 69.5295 16.6754 69.6162 20.318C71.3219 20.3469 72.4204 20.1445 73.1431 20.0867C74.6464 19.9711 75.9184 19.7398 77.335 19.4796C78.3468 19.2773 80.0235 18.9593 80.6306 18.6991ZM92.957 15.6347C92.5811 15.1144 91.6271 13.3798 91.3381 12.9173C92.9281 11.6453 93.6508 10.8358 94.4024 9.50598C94.7782 8.9278 94.8939 8.32071 94.8939 7.74252C94.8939 6.52834 94.229 5.4587 93.7664 4.88052C93.2461 4.1867 92.8413 3.43506 90.1239 2.04742C88.6784 1.32469 87.1462 0.948876 85.1804 0.891058C84.6889 0.891058 83.8217 0.891058 83.4459 0.891058C82.5786 0.891058 82.6364 0.919967 81.5957 0.948876C81.3644 2.5967 81.3933 4.15779 81.4222 5.68997C81.4222 5.68997 82.116 5.60325 82.4629 5.68997C82.5786 7.04871 82.434 12.5993 82.434 13.958C82.4919 14.912 82.2028 19.4796 82.2606 19.9711C83.8506 20 85.5273 20 87.0595 19.8844C87.0595 18.4678 87.0306 16.7333 87.0306 15.23C87.6955 16.3285 88.6206 18.1498 89.6324 19.5085C89.9215 19.9133 90.4419 20.7516 91.0201 21.3009C91.7717 20.954 93.4773 19.6531 94.9517 18.1209C94.4024 17.5427 93.4773 16.3285 92.957 15.6347ZM86.886 10.6913C86.7704 9.07234 86.886 7.13543 86.886 5.66107C87.1173 5.68997 87.2908 5.71888 87.4353 5.74779C88.4471 5.92125 89.2277 6.52834 89.9215 7.22216C91.1935 8.55198 87.9268 10.4311 86.886 10.6913ZM107.676 18.6991C107.676 17.8607 107.301 15.4902 106.896 14.3627C105.797 14.7674 104.41 14.9698 103.167 15.2589C102.791 15.3456 102.444 15.3745 102.039 15.4902C101.808 15.548 101.374 15.6058 101.114 15.6347C101.056 15.1433 101.143 13.8713 101.172 13.3798C103.196 13.1485 106.029 12.4836 106.029 12.4836C106.058 12.2813 106.058 11.9922 106.058 11.6163C106.058 10.2576 105.942 8.11834 105.942 8.11834L101.374 8.98562C101.403 8.52307 101.432 5.7767 101.461 5.40088C102.993 5.05397 105.075 4.96725 106.636 4.8227C106.694 3.2327 106.52 1.12233 106.462 0.283966C104.988 0.283966 102.733 0.630876 101.259 0.919967C99.0326 1.32469 96.9223 1.87397 95.4479 2.16306C95.5057 3.08815 95.5635 5.28525 95.8237 6.7307C96.2573 6.64398 96.6332 6.55725 96.9801 6.47052C96.9801 6.78852 96.9801 8.03162 96.9801 8.40743C96.9801 10.46 96.5753 16.6754 96.6621 20.318C98.3677 20.3469 99.4663 20.1445 100.189 20.0867C101.692 19.9711 102.964 19.7398 104.381 19.4796C105.393 19.2773 107.069 18.9593 107.676 18.6991Z" fill="white" fill-opacity="0.85"/>
</svg>
